<svg width="45" height="45" viewBox="0 0 45 45" fill="none" xmlns="http://www.w3.org/2000/svg">
  <g clip-path="url(#clip0_1454_1540)">
    <path
      d="M45 22.5009C45 34.925 34.9256 44.9982 22.4946 45C10.0726 45 -0.00179915 34.925 9.63796e-07 22.4991C-0.00359768 10.0732 10.0708 0 22.4982 0C34.9256 0 45 10.075 45 22.5009Z"
      fill="#FF7D2F" />
    <path
      d="M32.4363 19.3605C32.9362 16.3748 30.6848 14.7261 27.584 13.5971L28.6663 9.55799L26.2092 8.8996L25.1558 12.8309C24.5106 12.658 23.8466 12.4931 23.1873 12.3314L24.2476 8.37401L21.7905 7.71563L20.7074 11.7508C20.1725 11.6186 19.6463 11.4888 19.1368 11.3523L19.14 11.3401L15.7513 10.4302L15.0478 13.0557C15.0478 13.0557 16.8726 13.5074 16.8324 13.5321C17.8288 13.799 17.9976 14.463 17.9578 14.9871L16.7251 19.5878C16.7946 19.6065 16.8824 19.6337 16.9795 19.6746L16.7204 19.6052L14.9916 26.0503C14.8643 26.3516 14.5462 26.8012 13.8502 26.6166C13.874 26.6528 12.0643 26.138 12.0643 26.138L10.7892 28.9421L13.9889 29.7994C14.5836 29.9588 15.1668 30.1263 15.7397 30.2835L14.6471 34.3683L17.1025 35.0262L18.1852 30.9854C18.8544 31.1796 19.5052 31.3595 20.1433 31.5305L19.064 35.5518L21.5211 36.2102L22.6132 32.1346C26.8083 33.0052 29.9827 32.7395 31.3808 28.9546C32.5084 25.9079 31.4131 24.118 29.2182 22.9261C30.8397 22.5853 32.0742 21.5464 32.4362 19.3605L32.4363 19.3605ZM26.6569 27.1708C25.8393 30.2222 20.7065 28.4761 19.0388 28.0292L20.4892 22.6166C22.1559 23.0669 27.5095 23.9889 26.6569 27.1708L26.6569 27.1708ZM27.5584 19.2294C26.8144 22.0062 22.5402 20.5124 21.1521 20.1423L22.4668 15.2356C23.8563 15.6079 28.3359 16.3349 27.5584 19.2294L27.5584 19.2294Z"
      fill="white" />
  </g>
  <defs>
    <clipPath id="clip0_1454_1540">
      <rect width="45" height="45" fill="white" />
    </clipPath>
  </defs>
</svg>