<svg width="810" height="523" viewBox="0 0 810 523" fill="none" xmlns="http://www.w3.org/2000/svg">
<path fill-rule="evenodd" clip-rule="evenodd" d="M402.01 46.2898C381.01 28.4565 319.41 -5.61019 241.01 0.789808C143.01 8.78981 1.5101 86.2898 0.0100978 265.79C-1.4899 445.29 164.51 521.29 241.01 522.79C302.21 523.99 363.51 504.79 402.01 478.29C437.51 498.79 485.91 522.79 563.51 522.79C660.51 522.79 805.51 428.29 809.01 265.79C812.51 103.29 661.51 0.789808 572.51 0.789808C499.31 0.789808 468.51 8.78981 402.01 46.2898ZM328.51 128.79C316.177 124.456 284.21 115.69 267.01 115.29C245.51 114.79 196.51 115.29 153.01 159.79C109.51 204.29 110.51 250.29 111.01 269.79C111.51 289.29 125.01 344.79 164.51 373.29C204.01 401.79 257.01 422.79 325.01 392.29C393.01 361.79 415.51 320.79 422.51 295.29C429.387 270.24 427.096 245.191 426.538 239.1L426.51 238.79C426.01 233.29 439.01 197.29 471.51 197.79C504.01 198.29 516.01 228.29 517.01 250.29C518.01 272.29 516.51 314.79 505.01 344.29C495.81 367.89 485.844 384.79 482.01 390.29C493.01 397.79 526.51 410.79 572.51 402.79C630.01 392.79 657.01 373.29 683.01 322.79C709.01 272.29 690.51 213.29 681.01 195.79C671.51 178.29 635.01 129.29 583.01 118.29C531.01 107.29 480.51 121.29 438.51 152.79C397.283 183.71 387.371 221.858 384.182 234.128C384.123 234.357 384.065 234.578 384.01 234.79C381.01 246.29 380.51 274.79 381.01 282.29C381.51 289.79 376.01 331.79 335.51 331.29C295.01 330.79 288.01 291.29 288.01 270.79C288.01 250.29 290.01 209.79 301.51 179.29C309.478 158.158 320.771 140.751 326.36 132.137C327.224 130.804 327.952 129.683 328.51 128.79Z" fill="#A03DD6"/>
<path fill-rule="evenodd" clip-rule="evenodd" d="M401.832 46.1391C391.176 54.9827 376.233 69.1754 363.5 83.5C350.7 97.9 333.5 120.5 328.5 128.5L328.341 128.731C328.398 128.75 328.454 128.77 328.51 128.79C327.952 129.683 327.224 130.804 326.36 132.137C320.771 140.751 309.478 158.158 301.51 179.29C290.01 209.79 288.01 250.29 288.01 270.79C288.01 291.29 295.01 330.79 335.51 331.29C376.01 331.79 381.51 289.79 381.01 282.29C380.51 274.79 381.01 246.29 384.01 234.79C384.061 234.597 384.113 234.395 384.167 234.187L384.182 234.128C387.371 221.858 397.283 183.71 438.51 152.79C480.51 121.29 531.01 107.29 583.01 118.29C635.01 129.29 671.51 178.29 681.01 195.79C686.69 206.253 695.588 231.552 696.267 261H809.069C809.538 101.278 660.632 0.789808 572.51 0.789808C499.31 0.789808 468.51 8.78981 402.01 46.2898C401.951 46.2397 401.892 46.1895 401.832 46.1391Z" fill="#A81C9F"/>
<path fill-rule="evenodd" clip-rule="evenodd" d="M402 478.297V459L362.246 371.834C351.671 378.957 339.352 385.857 325.01 392.29C257.01 422.79 204.01 401.79 164.51 373.29C125.01 344.79 111.51 289.29 111.01 269.79C110.907 265.748 110.781 260.569 111.035 254.5L0.292968 254.5C0.136803 258.218 0.0419287 261.981 0.0100978 265.79C-1.4899 445.29 164.51 521.29 241.01 522.79C302.205 523.99 363.499 504.793 402 478.297ZM333.545 331.234C315.116 330.409 303.918 321.264 297.241 309.73L333.545 331.234Z" fill="#A81C9F"/>
<path fill-rule="evenodd" clip-rule="evenodd" d="M402.164 478.379C408.648 473.523 436.276 446.121 445 437C451.233 430.484 460.341 418.568 469.803 406.189C473.701 401.089 477.659 395.911 481.5 391L489.842 377.184C494.3 368.961 499.779 357.708 505.01 344.29C516.51 314.79 518.01 272.29 517.01 250.29C516.01 228.29 504.01 198.29 471.51 197.79C439.01 197.29 426.01 233.29 426.51 238.79L426.539 239.1C427.096 245.191 429.387 270.24 422.51 295.29C416.006 318.982 396.122 356.055 338.796 385.654C342.728 394.288 353.418 415.571 365.5 433.5C377.83 451.796 394.972 471.113 401.883 478.377C401.926 478.348 401.968 478.319 402.01 478.29C402.061 478.319 402.113 478.349 402.164 478.379Z" fill="#3B363B"/>
</svg>
